<svg t="1594305130859" class="icon" viewBox="0 0 1024 1024" version="1.1" xmlns="http://www.w3.org/2000/svg" p-id="4133" width="32" height="32"><path d="M967.488 0H56.512A56.512 56.512 0 0 0 0 56.512v910.976c0 31.232 25.28 56.512 56.512 56.512h490.432V627.456H413.44V472.96h133.504V358.848c0-132.224 80.768-204.16 198.784-204.16 56.512 0 105.088 4.096 119.232 6.016v138.24h-81.92c-64 0-76.48 30.72-76.48 75.52v98.56h152.96l-19.84 154.88h-133.12V1024h260.928a56.512 56.512 0 0 0 56.512-56.512V56.512A56.512 56.512 0 0 0 967.488 0" fill="" p-id="4134"></path></svg>