<svg t="1594305097956" class="icon" viewBox="0 0 1024 1024" version="1.1" xmlns="http://www.w3.org/2000/svg" p-id="3367" width="32" height="32"><path d="M506.922667 20.266667c-132.181333 0-148.778667 0.597333-200.661334 2.986666C254.464 25.6 219.093333 33.749333 188.16 45.781333a238.293333 238.293333 0 0 0-86.186667 56.106667 238.848 238.848 0 0 0-56.149333 86.186667c-12.074667 30.976-20.266667 66.346667-22.613333 118.101333C20.906667 358.144 20.266667 374.741333 20.266667 506.88c0 132.181333 0.597333 148.693333 2.986666 200.618667 2.346667 51.797333 10.538667 87.168 22.570667 118.101333 12.202667 32.426667 31.36 61.866667 56.106667 86.186667 24.32 24.746667 53.717333 43.946667 86.186666 56.149333 30.976 12.032 66.346667 20.266667 118.101334 22.613333 51.925333 2.389333 68.48 2.944 200.618666 2.944 132.181333 0 148.736-0.554667 200.661334-2.986666 51.797333-2.304 87.168-10.538667 118.144-22.570667a238.08 238.08 0 0 0 86.144-56.149333 238.848 238.848 0 0 0 56.149333-86.186667c11.946667-30.976 20.181333-66.304 22.613333-118.101333 2.346667-51.925333 2.944-68.437333 2.944-200.618667 0-132.138667-0.597333-148.736-2.986666-200.661333-2.389333-51.797333-10.624-87.125333-22.570667-118.101334a238.805333 238.805333 0 0 0-56.149333-86.186666 237.824 237.824 0 0 0-86.186667-56.106667C794.581333 33.792 759.210667 25.6 707.413333 23.210667 655.488 20.906667 638.976 20.266667 506.794667 20.266667h0.128zM463.274667 107.946667h43.648c129.92 0 145.322667 0.469333 196.608 2.816 47.445333 2.133333 73.216 10.112 90.368 16.768 21.12 7.808 40.234667 20.224 55.936 36.394666 17.066667 17.066667 27.562667 33.28 36.394666 55.978667 6.656 17.109333 14.592 42.88 16.768 90.325333 2.346667 51.285333 2.858667 66.688 2.858667 196.565334 0 129.834667-0.512 145.237333-2.858667 196.565333-2.133333 47.445333-10.112 73.173333-16.768 90.325333a150.485333 150.485333 0 0 1-36.394666 55.893334c-15.701333 16.170667-34.816 28.586667-55.893334 36.394666-17.152 6.698667-42.965333 14.592-90.410666 16.768-51.285333 2.304-66.688 2.816-196.608 2.816s-145.322667-0.512-196.650667-2.816c-47.445333-2.176-73.173333-10.112-90.325333-16.768a150.741333 150.741333 0 0 1-55.978667-36.394666A150.826667 150.826667 0 0 1 127.573333 793.6c-6.698667-17.152-14.634667-42.88-16.768-90.325333-2.346667-51.328-2.773333-66.730667-2.773333-196.693334 0-129.92 0.426667-145.237333 2.773333-196.522666 2.176-47.445333 10.069333-73.216 16.768-90.368 7.808-21.12 20.224-40.277333 36.394667-55.978667 17.066667-17.024 33.28-27.562667 55.978667-36.394667 17.152-6.698667 42.88-14.592 90.325333-16.768 44.928-2.048 62.293333-2.645333 153.002667-2.773333v0.128z m303.402666 80.810666a58.410667 58.410667 0 0 0 0 116.821334 58.453333 58.453333 0 0 0 0-116.821334z m-259.797333 68.266667a249.898667 249.898667 0 1 0 0 499.712 249.898667 249.898667 0 0 0 0-499.754667z m0 87.637333a162.218667 162.218667 0 0 1 0 324.437334 162.218667 162.218667 0 0 1 0-324.437334z" fill="#999999" p-id="3368"></path></svg>