<svg t="1594305163914" class="icon" viewBox="0 0 1024 1024" version="1.1" xmlns="http://www.w3.org/2000/svg" p-id="5718" width="32" height="32"><path d="M512 3.072C230.912 3.072 3.072 230.912 3.072 512s227.84 508.928 508.928 508.928 508.928-227.84 508.928-508.928S793.088 3.072 512 3.072zM400.384 697.344H288.256V399.36h111.616v297.984z m-15.872-351.744c-10.24 10.752-24.064 15.872-40.96 15.872H343.04c-16.384 0-29.184-5.12-39.424-15.872s-15.36-24.064-15.36-39.936c0-16.384 5.12-29.696 15.36-39.936 10.24-10.752 24.064-15.872 40.96-15.872 16.384 0 29.696 5.12 39.936 15.872 9.728 10.752 15.36 24.064 15.36 39.936 0.512 15.872-4.608 29.184-15.36 39.936z m351.232 351.744h-111.616v-148.992c0-22.016-1.024-34.304-1.024-60.928 0-14.336-21.504-19.456-36.864-19.456-14.848 0-21.504 4.608-31.232 14.336-9.728 9.728-5.632 11.264-5.632 29.184v186.368H437.76l5.632-229.888L437.76 399.36h111.616v37.376c22.016-32.768 40.448-37.376 74.752-37.376 33.28 0 60.416 5.12 80.896 28.16s30.72 54.784 30.72 96.256v173.568z" p-id="5719"></path></svg>